# xmcd
#
# Track frame offsets:
#	150
#	14885
#	30434
#	50986
#	64561
#	80213
#	96608
#	112237
#	130026
#	146589
#	164528
#	179148
#	196565
#	217856
#	235747
#	252407
#
# Disc length: 3630 seconds
#
# Revision: 0
# Processed by: cddbd v1.5.2PL0 Copyright (c) Steve Scherf et al.
# Submitted via: EasyCDDAExtractor 10.0.2.1
#
DISCID=f20e2c10
DTITLE=Various Artist - Gospel Jukebox Vol. 12
DYEAR=2004
DGENRE=Gospel
TTITLE0=Shelia Lewis - CPR
TTITLE1=Chuck Day - Tonite I Burned Some Bridges
TTITLE2=Bluegrass Charm - The Family Who Prays
TTITLE3=Gala Earlene - The Big Dance
TTITLE4=Molly Hawkins - Stand Up For Old Glory
TTITLE5=Gene Watson - Climb Higher
TTITLE6=Jim Mobley - I'm Glad I'm A Christian
TTITLE7=Gene Reasoner - She's Not Praying Any More
TTITLE8=For Heaven's Sake - Just As You Are
TTITLE9=Faithful Heart - He Set Free
TTITLE10=Jenkins and Company - You Stop Searching
TTITLE11=Finely Duke - Riders In The Sky
TTITLE12=Tommy Smith - Can't Wait To See You
TTITLE13=Ray Kiker - Amazing Grace
TTITLE14=Ray Kiker - Order Me Dear Lord
TTITLE15=Messengers Of Song - Mercy Called Me By Name
EXTD=
EXTT0=
EXTT1=
EXTT2=
EXTT3=
EXTT4=
EXTT5=
EXTT6=
EXTT7=
EXTT8=
EXTT9=
EXTT10=
EXTT11=
EXTT12=
EXTT13=
EXTT14=
EXTT15=
PLAYORDER=
